<?xml version="1.0" encoding="iso-8859-1"?>
<!-- Generator: Adobe Illustrator 19.0.0, SVG Export Plug-In . SVG Version: 6.00 Build 0)  -->
<svg version="1.1" id="Layer_1" xmlns="http://www.w3.org/2000/svg" xmlns:xlink="http://www.w3.org/1999/xlink" x="0px" y="0px"
	 viewBox="0 0 485 485" style="enable-background:new 0 0 485 485;" xml:space="preserve">
<g>
	<path d="M126.943,307.073h0.79c10.374,0,18.78-8.474,18.78-18.797v-81.762c0-10.307-8.474-18.78-18.78-18.78h-0.79
		c-10.374,0-18.78,8.474-18.78,18.78v81.762C108.162,298.599,116.569,307.073,126.943,307.073z"/>
	<path d="M155.508,319.801c0,9.533,7.751,17.217,17.284,17.217h18.444v44.202c0,10.373,8.407,18.781,18.797,18.781h0.773
		c10.39,0,18.797-8.474,18.797-18.781v-44.202h25.808v44.202c0,10.373,8.474,18.781,18.781,18.781h0.79
		c10.373,0,18.781-8.474,18.781-18.781v-44.202h18.461c9.449,0,17.267-7.684,17.267-17.217V190.76H155.508V319.801z"/>
	<path d="M329.828,182.942c0.118-1.715,0.252-3.413,0.252-5.128c0-27.977-17.856-52.407-44.27-65.353l14.661-22.647
		c0.908-1.379,0.521-3.346-0.925-4.271c-1.446-0.992-3.346-0.588-4.271,0.925l-15.233,23.37c-11.366-4.657-24.11-7.28-37.51-7.28
		c-13.468,0-26.195,2.623-37.561,7.28l-15.182-23.37c-0.908-1.513-2.875-1.917-4.321-0.925c-1.446,0.925-1.85,2.892-0.925,4.271
		l14.644,22.647c-26.397,12.946-44.269,37.375-44.269,65.353c0,1.715,0.134,3.413,0.269,5.128H329.828z M282.986,136.184
		c4.674,0,8.407,3.665,8.407,8.339c0,4.657-3.733,8.406-8.407,8.406c-4.657,0-8.406-3.749-8.406-8.406
		C274.58,139.849,278.328,136.184,282.986,136.184z M202.013,136.184c4.657,0,8.407,3.665,8.407,8.339
		c0,4.657-3.75,8.406-8.407,8.406c-4.657,0-8.406-3.749-8.406-8.406C193.607,139.849,197.356,136.184,202.013,136.184z"/>
	<path d="M357.266,307.073h0.791c10.373,0,18.78-8.474,18.78-18.797v-81.762c0-10.307-8.457-18.78-18.78-18.78h-0.791
		c-10.374,0-18.78,8.474-18.78,18.78v81.762C338.487,298.599,346.96,307.073,357.266,307.073z"/>
	<path d="M0,0v485h485V0H0z M455,455H30V30h425V455z"/>
</g>
<g>
</g>
<g>
</g>
<g>
</g>
<g>
</g>
<g>
</g>
<g>
</g>
<g>
</g>
<g>
</g>
<g>
</g>
<g>
</g>
<g>
</g>
<g>
</g>
<g>
</g>
<g>
</g>
<g>
</g>
</svg>
